<svg width="1441" height="577" viewBox="0 0 1441 577" fill="none" xmlns="http://www.w3.org/2000/svg">
<rect width="1440" height="434" transform="translate(0 63)" fill="#5A0D5C"/>
<g clip-path="url(#clip0)">
<path d="M417.003 248.915C415.789 246.362 414.031 244.394 411.728 243.013C409.425 241.589 406.746 240.877 403.69 240.877C400.634 240.877 397.871 241.589 395.401 243.013C392.973 244.394 391.047 246.404 389.623 249.041C388.242 251.637 387.551 254.651 387.551 258.084C387.551 261.517 388.242 264.531 389.623 267.127C391.047 269.722 392.973 271.732 395.401 273.155C397.871 274.537 400.634 275.227 403.69 275.227C407.96 275.227 411.477 273.951 414.24 271.397C417.003 268.843 418.615 265.389 419.075 261.035H401.618V256.388H425.166V260.784C424.832 264.384 423.701 267.692 421.775 270.706C419.85 273.678 417.317 276.044 414.177 277.802C411.037 279.519 407.541 280.377 403.69 280.377C399.629 280.377 395.924 279.435 392.575 277.551C389.226 275.625 386.567 272.967 384.6 269.576C382.674 266.185 381.711 262.354 381.711 258.084C381.711 253.814 382.674 249.983 384.6 246.592C386.567 243.159 389.226 240.501 392.575 238.617C395.924 236.691 399.629 235.728 403.69 235.728C408.337 235.728 412.44 236.879 415.998 239.182C419.599 241.485 422.215 244.729 423.848 248.915H417.003ZM438.437 236.23V280H432.722V236.23H438.437ZM468.02 280.44C463.959 280.44 460.254 279.498 456.905 277.614C453.556 275.688 450.897 273.03 448.93 269.638C447.004 266.206 446.041 262.354 446.041 258.084C446.041 253.814 447.004 249.983 448.93 246.592C450.897 243.159 453.556 240.501 456.905 238.617C460.254 236.691 463.959 235.728 468.02 235.728C472.123 235.728 475.849 236.691 479.198 238.617C482.547 240.501 485.185 243.138 487.11 246.529C489.036 249.92 489.999 253.772 489.999 258.084C489.999 262.396 489.036 266.247 487.11 269.638C485.185 273.03 482.547 275.688 479.198 277.614C475.849 279.498 472.123 280.44 468.02 280.44ZM468.02 275.479C471.076 275.479 473.818 274.767 476.246 273.344C478.716 271.92 480.642 269.89 482.024 267.252C483.447 264.615 484.159 261.559 484.159 258.084C484.159 254.567 483.447 251.511 482.024 248.915C480.642 246.278 478.737 244.248 476.309 242.824C473.881 241.401 471.118 240.689 468.02 240.689C464.922 240.689 462.159 241.401 459.731 242.824C457.303 244.248 455.377 246.278 453.954 248.915C452.572 251.511 451.881 254.567 451.881 258.084C451.881 261.559 452.572 264.615 453.954 267.252C455.377 269.89 457.303 271.92 459.731 273.344C462.201 274.767 464.964 275.479 468.02 275.479ZM533.714 236.23L517.198 280H510.605L494.089 236.23H500.18L513.933 273.971L527.686 236.23H533.714ZM565.852 270.266H546.762L543.245 280H537.217L553.042 236.482H559.635L575.398 280H569.369L565.852 270.266ZM564.22 265.619L556.307 243.515L548.395 265.619H564.22ZM616.707 280H610.993L588.009 245.148V280H582.294V236.168H588.009L610.993 270.957V236.168H616.707V280ZM652.321 270.266H633.231L629.714 280H623.685L639.51 236.482H646.104L661.866 280H655.838L652.321 270.266ZM650.688 265.619L642.776 243.515L634.863 265.619H650.688ZM699.132 236.23C703.904 236.23 708.028 237.131 711.503 238.931C715.019 240.689 717.699 243.222 719.541 246.529C721.425 249.837 722.366 253.73 722.366 258.209C722.366 262.689 721.425 266.582 719.541 269.89C717.699 273.155 715.019 275.667 711.503 277.425C708.028 279.142 703.904 280 699.132 280H685.505V236.23H699.132ZM699.132 275.29C704.783 275.29 709.095 273.804 712.068 270.832C715.04 267.817 716.526 263.61 716.526 258.209C716.526 252.767 715.019 248.518 712.005 245.462C709.033 242.406 704.741 240.877 699.132 240.877H691.219V275.29H699.132ZM735.619 240.877V255.509H751.569V260.219H735.619V275.29H753.453V280H729.904V236.168H753.453V240.877H735.619ZM804.714 270.266H785.624L782.107 280H776.079L791.903 236.482H798.497L814.259 280H808.231L804.714 270.266ZM803.081 265.619L795.169 243.515L787.256 265.619H803.081ZM855.569 280H849.854L826.87 245.148V280H821.156V236.168H826.87L849.854 270.957V236.168H855.569V280ZM878.937 236.23C883.71 236.23 887.833 237.131 891.308 238.931C894.825 240.689 897.504 243.222 899.346 246.529C901.23 249.837 902.172 253.73 902.172 258.209C902.172 262.689 901.23 266.582 899.346 269.89C897.504 273.155 894.825 275.667 891.308 277.425C887.833 279.142 883.71 280 878.937 280H865.31V236.23H878.937ZM878.937 275.29C884.589 275.29 888.901 273.804 891.873 270.832C894.846 267.817 896.332 263.61 896.332 258.209C896.332 252.767 894.825 248.518 891.81 245.462C888.838 242.406 884.547 240.877 878.937 240.877H871.025V275.29H878.937ZM932.756 280L922.332 262.103H915.424V280H909.71V236.23H923.839C927.146 236.23 929.93 236.796 932.191 237.926C934.493 239.056 936.21 240.584 937.34 242.51C938.471 244.436 939.036 246.634 939.036 249.104C939.036 252.118 938.157 254.777 936.398 257.079C934.682 259.382 932.086 260.91 928.611 261.663L939.601 280H932.756ZM915.424 257.519H923.839C926.937 257.519 929.26 256.765 930.809 255.258C932.358 253.709 933.133 251.658 933.133 249.104C933.133 246.508 932.358 244.499 930.809 243.075C929.302 241.652 926.979 240.94 923.839 240.94H915.424V257.519ZM973.787 270.266H954.697L951.181 280H945.152L960.977 236.482H967.571L983.333 280H977.304L973.787 270.266ZM972.155 265.619L964.242 243.515L956.33 265.619H972.155ZM1003.86 236.23C1008.63 236.23 1012.75 237.131 1016.23 238.931C1019.74 240.689 1022.42 243.222 1024.27 246.529C1026.15 249.837 1027.09 253.73 1027.09 258.209C1027.09 262.689 1026.15 266.582 1024.27 269.89C1022.42 273.155 1019.74 275.667 1016.23 277.425C1012.75 279.142 1008.63 280 1003.86 280H990.23V236.23H1003.86ZM1003.86 275.29C1009.51 275.29 1013.82 273.804 1016.79 270.832C1019.77 267.817 1021.25 263.61 1021.25 258.209C1021.25 252.767 1019.74 248.518 1016.73 245.462C1013.76 242.406 1009.47 240.877 1003.86 240.877H995.944V275.29H1003.86ZM1040.34 240.877V255.509H1056.29V260.219H1040.34V275.29H1058.18V280H1034.63V236.168H1058.18V240.877H1040.34Z" fill="white"/>
<path d="M613.744 310.396V319.178C613.744 320.063 613.473 320.777 612.931 321.319C612.389 321.851 611.664 322.116 610.756 322.116C609.815 322.116 609.063 321.834 608.498 321.27C607.945 320.694 607.668 319.919 607.668 318.945H608.847C608.858 319.576 609.013 320.091 609.312 320.489C609.622 320.888 610.103 321.087 610.756 321.087C611.376 321.087 611.835 320.904 612.134 320.539C612.433 320.174 612.582 319.72 612.582 319.178V310.396H613.744ZM624.851 312.936V322H623.689V320.406C623.424 320.971 623.014 321.402 622.461 321.701C621.907 322 621.287 322.149 620.601 322.149C619.517 322.149 618.631 321.817 617.945 321.153C617.259 320.478 616.916 319.504 616.916 318.231V312.936H618.061V318.099C618.061 319.084 618.305 319.836 618.792 320.356C619.29 320.877 619.965 321.137 620.817 321.137C621.691 321.137 622.389 320.86 622.909 320.307C623.429 319.753 623.689 318.94 623.689 317.866V312.936H624.851ZM632.086 312.77C633.171 312.77 634.056 313.107 634.743 313.782C635.429 314.446 635.772 315.415 635.772 316.688V322H634.626V316.82C634.626 315.835 634.377 315.083 633.879 314.563C633.392 314.042 632.723 313.782 631.871 313.782C630.996 313.782 630.299 314.059 629.779 314.612C629.259 315.166 628.998 315.979 628.998 317.053V322H627.836V312.936H628.998V314.48C629.286 313.926 629.701 313.506 630.244 313.218C630.786 312.919 631.4 312.77 632.086 312.77ZM639.255 311.226C639.023 311.226 638.823 311.143 638.657 310.977C638.491 310.811 638.408 310.606 638.408 310.362C638.408 310.119 638.491 309.92 638.657 309.765C638.823 309.599 639.023 309.516 639.255 309.516C639.488 309.516 639.687 309.599 639.853 309.765C640.019 309.92 640.102 310.119 640.102 310.362C640.102 310.606 640.019 310.811 639.853 310.977C639.687 311.143 639.488 311.226 639.255 311.226ZM639.836 312.936V322H638.674V312.936H639.836ZM646.768 322.133C645.915 322.133 645.146 321.945 644.46 321.568C643.785 321.181 643.248 320.639 642.85 319.941C642.462 319.233 642.269 318.409 642.269 317.468C642.269 316.527 642.468 315.708 642.866 315.011C643.265 314.302 643.807 313.76 644.493 313.384C645.179 312.996 645.949 312.803 646.801 312.803C647.653 312.803 648.422 312.996 649.108 313.384C649.806 313.76 650.348 314.302 650.735 315.011C651.134 315.708 651.333 316.527 651.333 317.468C651.333 318.397 651.134 319.216 650.735 319.925C650.337 320.633 649.789 321.181 649.092 321.568C648.394 321.945 647.62 322.133 646.768 322.133ZM646.768 321.12C647.365 321.12 647.919 320.987 648.428 320.722C648.937 320.445 649.346 320.035 649.656 319.493C649.977 318.94 650.138 318.265 650.138 317.468C650.138 316.671 649.983 316.001 649.673 315.459C649.363 314.906 648.953 314.496 648.444 314.23C647.935 313.954 647.382 313.815 646.784 313.815C646.186 313.815 645.633 313.954 645.124 314.23C644.615 314.496 644.205 314.906 643.895 315.459C643.597 316.001 643.447 316.671 643.447 317.468C643.447 318.265 643.597 318.94 643.895 319.493C644.205 320.035 644.609 320.445 645.107 320.722C645.617 320.987 646.17 321.12 646.768 321.12ZM654.945 314.546C655.2 313.981 655.587 313.544 656.108 313.234C656.639 312.925 657.286 312.77 658.05 312.77V313.981H657.735C656.893 313.981 656.218 314.208 655.709 314.662C655.2 315.116 654.945 315.874 654.945 316.937V322H653.783V312.936H654.945V314.546ZM671.293 310.396V311.358H666.18V315.691H670.496V316.654H666.18V322H665.018V310.396H671.293ZM681.39 312.936V322H680.228V320.406C679.962 320.971 679.552 321.402 678.999 321.701C678.446 322 677.826 322.149 677.14 322.149C676.055 322.149 675.17 321.817 674.483 321.153C673.797 320.478 673.454 319.504 673.454 318.231V312.936H674.6V318.099C674.6 319.084 674.843 319.836 675.33 320.356C675.828 320.877 676.503 321.137 677.356 321.137C678.23 321.137 678.927 320.86 679.447 320.307C679.968 319.753 680.228 318.94 680.228 317.866V312.936H681.39ZM685.537 309.715V322H684.375V309.715H685.537ZM689.663 309.715V322H688.501V309.715H689.663ZM701.034 322.116C700.27 322.116 699.595 321.983 699.008 321.718C698.433 321.452 697.979 321.081 697.647 320.605C697.315 320.13 697.138 319.598 697.116 319.012H698.344C698.399 319.576 698.648 320.074 699.091 320.506C699.534 320.926 700.181 321.137 701.034 321.137C701.819 321.137 702.439 320.938 702.893 320.539C703.358 320.13 703.59 319.615 703.59 318.995C703.59 318.497 703.463 318.099 703.208 317.8C702.954 317.49 702.638 317.263 702.262 317.119C701.886 316.964 701.366 316.798 700.702 316.621C699.927 316.411 699.313 316.206 698.859 316.007C698.405 315.808 698.018 315.498 697.697 315.077C697.376 314.657 697.215 314.087 697.215 313.367C697.215 312.77 697.37 312.238 697.68 311.773C697.99 311.298 698.427 310.927 698.992 310.661C699.556 310.396 700.203 310.263 700.934 310.263C702.008 310.263 702.871 310.528 703.524 311.06C704.188 311.58 704.57 312.255 704.669 313.085H703.408C703.33 312.609 703.07 312.189 702.627 311.823C702.185 311.447 701.587 311.259 700.834 311.259C700.137 311.259 699.556 311.447 699.091 311.823C698.626 312.189 698.394 312.692 698.394 313.334C698.394 313.821 698.521 314.214 698.776 314.513C699.03 314.812 699.346 315.038 699.722 315.193C700.109 315.348 700.63 315.514 701.283 315.691C702.035 315.902 702.644 316.112 703.109 316.322C703.574 316.522 703.967 316.831 704.287 317.252C704.608 317.673 704.769 318.237 704.769 318.945C704.769 319.488 704.625 320.002 704.337 320.489C704.05 320.976 703.623 321.369 703.059 321.668C702.495 321.967 701.819 322.116 701.034 322.116ZM708.857 313.915V319.543C708.857 320.096 708.962 320.478 709.173 320.688C709.383 320.899 709.754 321.004 710.285 321.004H711.348V322H710.102C709.283 322 708.675 321.812 708.276 321.436C707.878 321.048 707.679 320.417 707.679 319.543V313.915H706.417V312.936H707.679V310.661H708.857V312.936H711.348V313.915H708.857ZM713.065 317.451C713.065 316.522 713.247 315.708 713.613 315.011C713.989 314.302 714.504 313.76 715.157 313.384C715.821 312.996 716.568 312.803 717.398 312.803C718.261 312.803 719.003 313.002 719.622 313.4C720.253 313.799 720.707 314.308 720.984 314.928V312.936H722.146V322H720.984V319.991C720.696 320.611 720.237 321.126 719.606 321.535C718.986 321.934 718.245 322.133 717.381 322.133C716.562 322.133 715.821 321.939 715.157 321.552C714.504 321.164 713.989 320.617 713.613 319.908C713.247 319.2 713.065 318.381 713.065 317.451ZM720.984 317.468C720.984 316.737 720.834 316.095 720.536 315.542C720.237 314.989 719.827 314.563 719.307 314.264C718.798 313.965 718.233 313.815 717.614 313.815C716.972 313.815 716.396 313.959 715.887 314.247C715.378 314.535 714.974 314.955 714.675 315.509C714.387 316.051 714.244 316.699 714.244 317.451C714.244 318.193 714.387 318.846 714.675 319.41C714.974 319.964 715.378 320.39 715.887 320.688C716.396 320.976 716.972 321.12 717.614 321.12C718.233 321.12 718.798 320.971 719.307 320.672C719.827 320.373 720.237 319.947 720.536 319.394C720.834 318.84 720.984 318.198 720.984 317.468ZM724.6 317.468C724.6 316.527 724.788 315.708 725.164 315.011C725.54 314.302 726.061 313.76 726.725 313.384C727.389 312.996 728.147 312.803 728.999 312.803C730.117 312.803 731.036 313.079 731.755 313.633C732.485 314.186 732.956 314.939 733.166 315.891H731.921C731.766 315.238 731.428 314.729 730.908 314.363C730.399 313.987 729.763 313.799 728.999 313.799C728.39 313.799 727.842 313.937 727.356 314.214C726.869 314.491 726.481 314.906 726.193 315.459C725.917 316.001 725.778 316.671 725.778 317.468C725.778 318.265 725.917 318.94 726.193 319.493C726.481 320.047 726.869 320.462 727.356 320.738C727.842 321.015 728.39 321.153 728.999 321.153C729.763 321.153 730.399 320.971 730.908 320.605C731.428 320.229 731.766 319.709 731.921 319.045H733.166C732.956 319.975 732.485 320.722 731.755 321.286C731.024 321.851 730.106 322.133 728.999 322.133C728.147 322.133 727.389 321.945 726.725 321.568C726.061 321.181 725.54 320.639 725.164 319.941C724.788 319.233 724.6 318.409 724.6 317.468ZM740.542 322L736.806 317.933V322H735.644V309.715H736.806V316.986L740.459 312.936H742.086L737.786 317.451L742.119 322H740.542ZM752.277 310.396C753.561 310.396 754.662 310.628 755.581 311.093C756.499 311.558 757.202 312.227 757.689 313.102C758.176 313.976 758.42 315.016 758.42 316.223C758.42 317.418 758.176 318.453 757.689 319.327C757.202 320.19 756.499 320.854 755.581 321.319C754.662 321.773 753.561 322 752.277 322H748.841V310.396H752.277ZM752.277 321.037C753.893 321.037 755.121 320.617 755.963 319.775C756.815 318.923 757.241 317.739 757.241 316.223C757.241 314.695 756.815 313.506 755.963 312.653C755.121 311.79 753.893 311.358 752.277 311.358H750.003V321.037H752.277ZM769.095 317.003C769.095 317.401 769.084 317.706 769.062 317.916H761.542C761.575 318.602 761.741 319.189 762.04 319.676C762.339 320.163 762.731 320.534 763.218 320.788C763.705 321.032 764.237 321.153 764.812 321.153C765.565 321.153 766.196 320.971 766.705 320.605C767.225 320.24 767.568 319.748 767.734 319.128H768.963C768.741 320.013 768.265 320.738 767.535 321.303C766.815 321.856 765.908 322.133 764.812 322.133C763.96 322.133 763.196 321.945 762.521 321.568C761.846 321.181 761.315 320.639 760.927 319.941C760.551 319.233 760.363 318.409 760.363 317.468C760.363 316.527 760.551 315.702 760.927 314.994C761.304 314.286 761.829 313.744 762.505 313.367C763.18 312.991 763.949 312.803 764.812 312.803C765.675 312.803 766.428 312.991 767.07 313.367C767.723 313.744 768.221 314.253 768.564 314.895C768.918 315.525 769.095 316.228 769.095 317.003ZM767.917 316.97C767.928 316.295 767.789 315.719 767.502 315.243C767.225 314.767 766.843 314.408 766.356 314.164C765.869 313.921 765.338 313.799 764.762 313.799C763.899 313.799 763.163 314.076 762.554 314.629C761.946 315.182 761.608 315.963 761.542 316.97H767.917ZM774.774 320.871L777.829 312.936H779.057L775.422 322H774.11L770.474 312.936H771.72L774.774 320.871ZM789.166 317.003C789.166 317.401 789.155 317.706 789.132 317.916H781.612C781.645 318.602 781.811 319.189 782.11 319.676C782.409 320.163 782.802 320.534 783.289 320.788C783.776 321.032 784.307 321.153 784.882 321.153C785.635 321.153 786.266 320.971 786.775 320.605C787.295 320.24 787.638 319.748 787.804 319.128H789.033C788.811 320.013 788.336 320.738 787.605 321.303C786.886 321.856 785.978 322.133 784.882 322.133C784.03 322.133 783.267 321.945 782.591 321.568C781.916 321.181 781.385 320.639 780.998 319.941C780.621 319.233 780.433 318.409 780.433 317.468C780.433 316.527 780.621 315.702 780.998 314.994C781.374 314.286 781.9 313.744 782.575 313.367C783.25 312.991 784.019 312.803 784.882 312.803C785.746 312.803 786.498 312.991 787.14 313.367C787.793 313.744 788.291 314.253 788.634 314.895C788.989 315.525 789.166 316.228 789.166 317.003ZM787.987 316.97C787.998 316.295 787.86 315.719 787.572 315.243C787.295 314.767 786.913 314.408 786.426 314.164C785.939 313.921 785.408 313.799 784.833 313.799C783.969 313.799 783.233 314.076 782.625 314.629C782.016 315.182 781.678 315.963 781.612 316.97H787.987ZM792.786 309.715V322H791.624V309.715H792.786ZM799.717 322.133C798.865 322.133 798.096 321.945 797.41 321.568C796.735 321.181 796.198 320.639 795.799 319.941C795.412 319.233 795.218 318.409 795.218 317.468C795.218 316.527 795.418 315.708 795.816 315.011C796.214 314.302 796.757 313.76 797.443 313.384C798.129 312.996 798.898 312.803 799.751 312.803C800.603 312.803 801.372 312.996 802.058 313.384C802.755 313.76 803.298 314.302 803.685 315.011C804.084 315.708 804.283 316.527 804.283 317.468C804.283 318.397 804.084 319.216 803.685 319.925C803.287 320.633 802.739 321.181 802.042 321.568C801.344 321.945 800.57 322.133 799.717 322.133ZM799.717 321.12C800.315 321.12 800.868 320.987 801.377 320.722C801.887 320.445 802.296 320.035 802.606 319.493C802.927 318.94 803.087 318.265 803.087 317.468C803.087 316.671 802.932 316.001 802.623 315.459C802.313 314.906 801.903 314.496 801.394 314.23C800.885 313.954 800.332 313.815 799.734 313.815C799.136 313.815 798.583 313.954 798.074 314.23C797.565 314.496 797.155 314.906 796.845 315.459C796.546 316.001 796.397 316.671 796.397 317.468C796.397 318.265 796.546 318.94 796.845 319.493C797.155 320.035 797.559 320.445 798.057 320.722C798.566 320.987 799.12 321.12 799.717 321.12ZM807.879 314.928C808.166 314.319 808.62 313.815 809.24 313.417C809.871 313.008 810.618 312.803 811.481 312.803C812.3 312.803 813.036 312.996 813.689 313.384C814.353 313.76 814.868 314.302 815.233 315.011C815.609 315.708 815.798 316.522 815.798 317.451C815.798 318.381 815.609 319.2 815.233 319.908C814.868 320.617 814.353 321.164 813.689 321.552C813.036 321.939 812.3 322.133 811.481 322.133C810.629 322.133 809.887 321.934 809.257 321.535C808.626 321.126 808.166 320.617 807.879 320.008V326.283H806.733V312.936H807.879V314.928ZM814.619 317.451C814.619 316.699 814.469 316.051 814.171 315.509C813.883 314.955 813.484 314.535 812.975 314.247C812.466 313.959 811.891 313.815 811.249 313.815C810.629 313.815 810.059 313.965 809.539 314.264C809.03 314.563 808.626 314.989 808.327 315.542C808.028 316.095 807.879 316.737 807.879 317.468C807.879 318.198 808.028 318.84 808.327 319.394C808.626 319.947 809.03 320.373 809.539 320.672C810.059 320.971 810.629 321.12 811.249 321.12C811.891 321.12 812.466 320.976 812.975 320.688C813.484 320.39 813.883 319.964 814.171 319.41C814.469 318.846 814.619 318.193 814.619 317.451ZM826.469 317.003C826.469 317.401 826.458 317.706 826.436 317.916H818.915C818.949 318.602 819.115 319.189 819.413 319.676C819.712 320.163 820.105 320.534 820.592 320.788C821.079 321.032 821.61 321.153 822.186 321.153C822.938 321.153 823.569 320.971 824.078 320.605C824.599 320.24 824.942 319.748 825.108 319.128H826.336C826.115 320.013 825.639 320.738 824.909 321.303C824.189 321.856 823.282 322.133 822.186 322.133C821.334 322.133 820.57 321.945 819.895 321.568C819.22 321.181 818.689 320.639 818.301 319.941C817.925 319.233 817.737 318.409 817.737 317.468C817.737 316.527 817.925 315.702 818.301 314.994C818.677 314.286 819.203 313.744 819.878 313.367C820.553 312.991 821.323 312.803 822.186 312.803C823.049 312.803 823.802 312.991 824.444 313.367C825.097 313.744 825.595 314.253 825.938 314.895C826.292 315.525 826.469 316.228 826.469 317.003ZM825.29 316.97C825.301 316.295 825.163 315.719 824.875 315.243C824.599 314.767 824.217 314.408 823.73 314.164C823.243 313.921 822.712 313.799 822.136 313.799C821.273 313.799 820.537 314.076 819.928 314.629C819.319 315.182 818.982 315.963 818.915 316.97H825.29ZM830.089 314.546C830.344 313.981 830.731 313.544 831.251 313.234C831.783 312.925 832.43 312.77 833.194 312.77V313.981H832.878C832.037 313.981 831.362 314.208 830.853 314.662C830.344 315.116 830.089 315.874 830.089 316.937V322H828.927V312.936H830.089V314.546Z" fill="white"/>
</g>
<path d="M-5.72205e-06 76.5204L1440 78.5535L1440.11 0.033153L1360.09 11.494L1357.89 11.8032C1277.17 23.1386 1118.59 45.4063 960.047 43.6083C871.521 42.6043 783.005 34.0276 694.489 25.4509C623.027 18.5266 551.564 11.6023 480.096 8.66291C320.106 1.85583 160.088 14.5653 80.0784 21.0336L0.0692042 27.5018L-5.72205e-06 76.5204Z" fill="#5A0D5C"/>
<path d="M1440 448H0V577L80 557.985L82.2015 557.472C162.909 538.663 321.454 501.712 480 504.298C568.528 505.742 657.056 519.627 745.584 533.512C817.056 544.722 888.528 555.932 960 560.595C1120 571.408 1280 550.156 1360 539.344L1440 528.532V448Z" fill="#5A0D5C"/>
<defs>
<clipPath id="clip0">
<rect width="901" height="87" fill="white" transform="translate(270 236)"/>
</clipPath>
</defs>
</svg>
