<svg width="1440" height="937" viewBox="0 0 1440 937" fill="none" xmlns="http://www.w3.org/2000/svg">
<path d="M1437.99 186.984L-2 189.551L1.11874 936.545L81.0905 929.722L83.2912 929.538C163.971 922.786 322.462 909.522 481.01 910.148C569.54 910.497 658.088 915.217 746.636 919.938C818.124 923.748 889.612 927.559 961.091 929.07C1121.11 932.583 1281.07 924.832 1361.06 920.891L1441.04 916.95L1437.99 186.984Z" fill="#D2CFF5"/>
<path d="M-0.00012207 747.441L1440 747.441L1440 0.071228L1360 6.7547L1357.8 6.93505C1277.09 13.5467 1118.55 26.5348 960 25.6258C871.472 25.1182 782.944 20.2376 694.416 15.357C622.944 11.4167 551.472 7.4764 480 5.83729C320 2.03686 160 9.50668 80 13.3071L-2.43751e-05 17.1075L-0.00012207 747.441Z" fill="#D2CFF5"/>
</svg>
